<?xml version="1.0" encoding="UTF-8" standalone="no"?>
<!-- Created with Inkscape (http://www.inkscape.org/) -->

<svg
   xmlns:dc="http://purl.org/dc/elements/1.1/"
   xmlns:cc="http://creativecommons.org/ns#"
   xmlns:rdf="http://www.w3.org/1999/02/22-rdf-syntax-ns#"
   xmlns:svg="http://www.w3.org/2000/svg"
   xmlns="http://www.w3.org/2000/svg"
   xmlns:sodipodi="http://sodipodi.sourceforge.net/DTD/sodipodi-0.dtd"
   xmlns:inkscape="http://www.inkscape.org/namespaces/inkscape"
   version="1.1"
   id="svg869"
   width="512"
   height="512"
   viewBox="0 0 512 512"
   sodipodi:docname="sem-ficha2.png.svg"
   inkscape:version="0.92.5 (2060ec1f9f, 2020-04-08)">
  <metadata
     id="metadata875">
    <rdf:RDF>
      <cc:Work
         rdf:about="">
        <dc:format>image/svg+xml</dc:format>
        <dc:type
           rdf:resource="http://purl.org/dc/dcmitype/StillImage" />
        <dc:title></dc:title>
      </cc:Work>
    </rdf:RDF>
  </metadata>
  <defs
     id="defs873" />
  <sodipodi:namedview
     pagecolor="#ffffff"
     bordercolor="#666666"
     borderopacity="1"
     objecttolerance="10"
     gridtolerance="10"
     guidetolerance="10"
     inkscape:pageopacity="0"
     inkscape:pageshadow="2"
     inkscape:window-width="1366"
     inkscape:window-height="703"
     id="namedview871"
     showgrid="false"
     inkscape:zoom="0.55517578"
     inkscape:cx="-96.02779"
     inkscape:cy="352.40538"
     inkscape:window-x="0"
     inkscape:window-y="0"
     inkscape:window-maximized="1"
     inkscape:current-layer="svg869" />
  <path
     style="fill:#00ff00;stroke-width:16"
     d="m 146.01166,487.15194 c -63.391198,-27.55243 -64.289768,-38.38486 -7.68276,-92.61781 30.3389,-29.06651 55.0562,-39.6503 78.36428,-33.5551 18.72587,4.89693 48.09146,1.3872 65.25685,-7.79947 25.82381,-13.8205 39.91197,-7.72463 81.63571,35.32336 27.73426,28.61449 50.42592,57.45096 50.42592,64.08105 0,20.32125 -107.87933,58.45874 -163.4861,57.79559 -28.88265,-0.34445 -75.9139,-10.79688 -104.5139,-23.22762 z M 21.195222,359.51973 C 8.4442622,329.00237 -1.9883478,281.97111 -1.9883478,255.00583 c 0,-53.28018 38.9673098,-160.000005 58.4218598,-160.000005 6.63009,0 35.46656,22.691665 64.081058,50.425925 43.04799,41.72374 49.14386,55.8119 35.32337,81.63571 -9.18664,17.16539 -12.69641,46.53098 -7.79948,65.25685 6.0952,23.30808 -4.48859,48.02538 -33.55511,78.36429 -23.352248,24.37448 -48.678958,44.31723 -56.281588,44.31723 -7.60263,0 -24.25557,-24.96875 -37.00654,-55.4861 z m 363.267988,2.01546 c -46.33736,-47.80803 -49.13427,-55.70438 -26.41051,-74.56341 13.97838,-11.60104 21.80203,-30.50867 17.38589,-42.01697 -4.41615,-11.50829 -1.14384,-25.17968 7.27185,-30.38085 8.41567,-5.20117 15.30122,-17.11335 15.30122,-26.47152 0,-10.48456 -9.51936,-9.11447 -24.80301,3.56984 -20.46045,16.98064 -29.32409,16.06358 -50.62557,-5.23787 -21.30145,-21.30148 -22.21851,-30.16513 -5.23787,-50.62557 12.68431,-15.28364 14.0544,-24.80301 3.56984,-24.80301 -9.35817,0 -21.53728,7.31745 -27.06469,16.26099 -5.52742,8.94354 -17.20603,11.83822 -25.95249,6.43262 -8.74645,-5.40561 -28.52034,1.59049 -43.94197,15.54688 -25.93053,23.46681 -32.17226,21.09386 -82.99179,-31.55137 C 87.981742,62.809195 87.115132,59.955316 116.79139,38.090606 158.61985,7.2724629 242.39376,-6.7350149 309.54067,5.8618221 417.53758,26.122164 510.01166,141.04834 510.01166,255.00583 c 0,55.38253 -39.26091,160 -60.04491,160 -7.52275,0 -36.99935,-24.06179 -65.50354,-53.47064 z M 193.21166,315.80583 c -22.17838,-22.17838 -25.49098,-71.02341 -5.6484,-83.2868 17.60293,-10.87922 102.31403,77.28784 88.00574,91.59613 -17.17838,17.17838 -61.3236,12.72441 -82.35734,-8.30933 z m 70.58256,-74.93941 c -30.96112,-32.31645 -38.66101,-49.90126 -25.43072,-58.07805 26.60765,-16.44441 107.74358,66.52204 86.16086,88.10476 -11.09822,11.09822 -30.53883,1.48624 -60.73014,-30.02671 z"
     id="path885"
     inkscape:connector-curvature="0" />
</svg>
